<svg xmlns="http://www.w3.org/2000/svg" viewBox="0 0 991.25 143.78">
  <title>logo</title>
  <g data-name="Warstwa 2">
    <g data-name="Layer 1">
      <path d="M217.09,121.42l14.78-17.58C245.25,115.42,258.83,122,276,122c15.18,0,24.76-7.18,24.76-17.57V104c0-10-5.59-15.37-31.55-21.37-29.75-7.18-46.53-16-46.53-41.73v-.4c0-24,20-40.54,47.73-40.54C290.78,0,307,6.19,321.13,17.57L308,36.15C295.37,26.76,282.79,21.77,270,21.77c-14.38,0-22.77,7.39-22.77,16.57v.4c0,10.78,6.4,15.58,33.35,22,29.56,7.19,44.74,17.77,44.74,40.94V102c0,26.17-20.57,41.74-49.93,41.74A86.14,86.14,0,0,1,217.09,121.42Z" />
      <path d="M432.2,1H455l61.51,140.78h-26L476.33,108h-66.1l-14.38,33.74H370.69Zm35.14,85.27L443.18,30.35l-24,55.92Z" />
      <path d="M588.19,24.76H543.86V2H657.29V24.76H613v117H588.19Z" />
      <path d="M749,24.76H704.65V2H818.07V24.76H773.74v117H749Z" />
      <path d="M907,1h22.77l61.51,140.78h-26L951.11,108H885l-14.38,33.74H845.47Zm35.15,85.27L918,30.35,894,86.27Z" />
      <path d="M139.79,59.59v24.6h-22v0H82.16v35.66h0v22H57.6V84.16H22v0H0V59.59H57.6V2H82.19V24h0V59.59Z" style="fill:#ec145b" />
      <path d="M95.62,2h69.32V24H95.62Zm0,117.82v22h70.32v-22Z" />
    </g>
  </g>
</svg>